<svg width="100" height="72" viewBox="0 0 100 72" fill="none" xmlns="http://www.w3.org/2000/svg">
<path d="M50.1131 42.3536C50.3084 42.5488 50.625 42.5488 50.8202 42.3536L54.0022 39.1716C54.1975 38.9763 54.1975 38.6597 54.0022 38.4645C53.8069 38.2692 53.4904 38.2692 53.2951 38.4645L50.4667 41.2929L47.6382 38.4645C47.443 38.2692 47.1264 38.2692 46.9311 38.4645C46.7359 38.6597 46.7359 38.9763 46.9311 39.1716L50.1131 42.3536ZM49.9667 -2.18557e-08L49.9667 42L50.9667 42L50.9667 2.18557e-08L49.9667 -2.18557e-08Z" fill="#3F2305"/>
<path d="M6.64597 41.7833C7.16115 41.3394 7.69842 41.0561 8.25779 40.9332C8.82323 40.8051 9.36563 40.8341 9.885 41.0202C10.4104 41.2011 10.8742 41.5249 11.2762 41.9916C11.8036 42.6037 12.0855 43.2373 12.1219 43.8924C12.1634 44.5535 11.9732 45.1661 11.5512 45.7303L10.9638 45.0485C11.2482 44.6556 11.3678 44.2305 11.3224 43.7733C11.2883 43.317 11.091 42.8797 10.7308 42.4615C10.4436 42.1282 10.1093 41.8934 9.72806 41.7573C9.34679 41.6211 8.93675 41.6048 8.49794 41.7083C8.07041 41.8127 7.63846 42.0528 7.20207 42.4288C6.76569 42.8047 6.46124 43.199 6.28874 43.6116C6.12145 44.0303 6.07693 44.4382 6.15516 44.8354C6.23338 45.2327 6.41609 45.5979 6.70328 45.9313C7.06358 46.3495 7.46382 46.6118 7.90403 46.7183C8.35552 46.8256 8.79964 46.7651 9.2364 46.5366L9.82383 47.2185C9.2155 47.542 8.58447 47.6368 7.93074 47.5031C7.277 47.3694 6.68906 46.9995 6.16689 46.3934C5.76483 45.9267 5.51018 45.4228 5.40296 44.8816C5.30179 44.3352 5.35336 43.7944 5.55766 43.2594C5.76802 42.7192 6.13079 42.2271 6.64597 41.7833Z" fill="black"/>
<path d="M19.7834 47.1046L14.2313 54.0349L13.5757 53.5097L19.1278 46.5794L19.7834 47.1046Z" fill="black"/>
<path d="M24.4846 51.6667C24.3401 51.581 24.2469 51.456 24.2048 51.2915C24.1628 51.1271 24.1866 50.9692 24.2764 50.8178C24.3661 50.6664 24.4912 50.5731 24.6515 50.538C24.8159 50.4959 24.9704 50.5178 25.1149 50.6034C25.2594 50.6891 25.3527 50.8141 25.3947 50.9786C25.4409 51.1361 25.419 51.2906 25.3293 51.442C25.2395 51.5934 25.1125 51.6901 24.948 51.7321C24.7836 51.7741 24.6292 51.7523 24.4846 51.6667ZM24.2157 52.9441L20.8747 58.5803L20.1521 58.1519L23.4931 52.5157L24.2157 52.9441Z" fill="black"/>
<path d="M28.0669 58.6998C28.3007 58.0612 28.6319 57.552 29.0605 57.1722C29.4919 56.7849 29.9798 56.546 30.524 56.4556C31.071 56.3576 31.6337 56.4145 32.2122 56.6262C32.971 56.904 33.5258 57.32 33.8766 57.8744C34.2349 58.4315 34.3672 59.0592 34.2735 59.7575L33.4283 59.4482C33.4854 58.9664 33.3828 58.537 33.1204 58.1598C32.8683 57.7779 32.4831 57.4921 31.9647 57.3024C31.5515 57.1511 31.1453 57.1089 30.746 57.1758C30.3467 57.2426 29.9806 57.4281 29.6478 57.7322C29.3253 58.0316 29.065 58.4517 28.867 58.9926C28.669 59.5335 28.5952 60.0261 28.6455 60.4705C28.7034 60.9176 28.8632 61.2956 29.125 61.6044C29.3868 61.9132 29.7243 62.1432 30.1375 62.2945C30.6559 62.4842 31.1332 62.5184 31.5695 62.3969C32.0161 62.2708 32.3745 62.0015 32.6446 61.5893L33.4898 61.8986C33.1161 62.4774 32.6112 62.8677 31.9751 63.0693C31.3391 63.271 30.6454 63.2343 29.8941 62.9593C29.3157 62.7476 28.8478 62.4315 28.4905 62.0111C28.136 61.5832 27.9177 61.0858 27.8355 60.5191C27.756 59.9448 27.8332 59.3383 28.0669 58.6998Z" fill="black"/>
<path d="M43.3414 66.0958L41.0792 62.807L40.668 65.7181L39.8362 65.6006L41.0785 56.8079L41.9102 56.9254L41.1749 62.1297L44.1986 59.5998L45.363 59.7643L41.829 62.5615L44.4702 66.2553L43.3414 66.0958Z" fill="black"/>
<path d="M61.4333 58.4467C61.9165 58.3346 62.3725 58.3355 62.8014 58.4495C63.238 58.5617 63.6143 58.8028 63.9302 59.173C64.252 59.5336 64.4826 60.0139 64.6219 60.6139L65.4901 64.3545L64.6835 64.5417L63.837 60.8946C63.676 60.2011 63.3777 59.7119 62.942 59.427C62.5141 59.1403 62.0001 59.0666 61.4001 59.2059C60.7845 59.3488 60.3387 59.6576 60.0629 60.1322C59.7871 60.6069 59.7369 61.2222 59.9124 61.9781L60.7209 65.4615L59.9026 65.6514L57.8949 57.0013L58.7131 56.8114L59.4918 60.1662C59.6058 59.7374 59.8332 59.3725 60.174 59.0716C60.5226 58.769 60.9424 58.5607 61.4333 58.4467Z" fill="black"/>
<path d="M76.1715 56.0669C76.2984 56.3255 76.3881 56.5265 76.4407 56.67L71.5604 59.0645C71.8005 59.4992 72.095 59.827 72.4439 60.0479C72.7929 60.2688 73.1659 60.3843 73.563 60.3944C73.9565 60.3974 74.34 60.3072 74.7135 60.124C75.2019 59.8843 75.5531 59.565 75.7672 59.1659C75.9885 58.7632 76.0543 58.3344 75.9647 57.8793L76.7619 57.4882C76.9002 58.1332 76.8221 58.7552 76.5279 59.3541C76.2372 59.9422 75.7364 60.4107 75.0254 60.7596C74.4723 61.0309 73.9169 61.152 73.3589 61.1227C72.7975 61.0863 72.2801 60.9036 71.8067 60.5744C71.337 60.2346 70.9524 59.7594 70.6528 59.1489C70.3533 58.5385 70.2129 57.9435 70.2315 57.364C70.2502 56.7846 70.4187 56.2653 70.737 55.8061C71.0553 55.347 71.4945 54.98 72.0547 54.7051C72.6149 54.4302 73.1632 54.3127 73.6996 54.3525C74.2431 54.3888 74.7284 54.5606 75.1555 54.8679C75.5861 55.1645 75.9248 55.5642 76.1715 56.0669ZM75.396 56.4207C75.1883 55.9791 74.9152 55.6496 74.577 55.4324C74.2459 55.2117 73.8836 55.0999 73.4901 55.0969C73.0965 55.094 72.713 55.1841 72.3395 55.3673C71.7793 55.6422 71.3898 56.0561 71.171 56.609C70.9522 57.1619 70.9816 57.7757 71.2592 58.4505L75.396 56.4207Z" fill="black"/>
<path d="M81.1349 50.6345C81.031 50.1992 81.0593 49.7779 81.2199 49.3708C81.3868 48.9587 81.6886 48.5839 82.1254 48.2464L82.661 48.9396L82.4806 49.079C81.9995 49.4508 81.7136 49.8789 81.623 50.3635C81.5324 50.848 81.7219 51.3942 82.1914 52.0019L84.4294 54.898L83.7647 55.4116L79.7584 50.2271L80.4231 49.7135L81.1349 50.6345Z" fill="black"/>
<path d="M92.5214 41.97C92.7396 42.158 92.9011 42.3077 93.0058 42.419L89.4577 46.5374C89.8491 46.843 90.2487 47.0288 90.6563 47.0949C91.064 47.161 91.4524 47.1208 91.8216 46.9742C92.1846 46.8224 92.502 46.5889 92.7735 46.2737C93.1285 45.8616 93.3262 45.43 93.3664 44.9788C93.4118 44.5217 93.3039 44.1014 93.0428 43.7181L93.6224 43.0453C94.0029 43.5843 94.1753 44.1869 94.1398 44.8532C94.1035 45.5083 93.8268 46.1358 93.3099 46.7358C92.9078 47.2025 92.4445 47.532 91.9199 47.7242C91.3892 47.9111 90.8416 47.9462 90.277 47.8293C89.7116 47.7012 89.1713 47.4153 88.6561 46.9714C88.1409 46.5276 87.7782 46.0355 87.5678 45.4953C87.3574 44.955 87.3085 44.4113 87.4209 43.864C87.5334 43.3168 87.7932 42.8068 88.2005 42.334C88.6078 41.8613 89.0659 41.5379 89.5748 41.3639C90.089 41.1838 90.6028 41.1513 91.1162 41.2663C91.6287 41.3699 92.0971 41.6045 92.5214 41.97ZM91.9471 42.5999C91.5826 42.2753 91.2022 42.0795 90.8058 42.0126C90.4146 41.9396 90.0375 41.979 89.6744 42.1308C89.3113 42.2826 88.994 42.5161 88.7225 42.8312C88.3152 43.304 88.1195 43.8376 88.1354 44.432C88.1512 45.0264 88.4192 45.5794 88.9395 46.091L91.9471 42.5999Z" fill="black"/>
</svg>
