<svg width="70" height="70" viewBox="0 0 70 70" fill="none" xmlns="http://www.w3.org/2000/svg">
<circle cx="35" cy="35" r="34.5" transform="matrix(-1 0 0 1 70 0)" stroke="#3F2305"/>
<path d="M56.3535 35.1132C56.5488 35.3085 56.5488 35.6251 56.3535 35.8203L53.1716 39.0023C52.9763 39.1976 52.6597 39.1976 52.4645 39.0023C52.2692 38.8071 52.2692 38.4905 52.4645 38.2952L55.2929 35.4668L52.4645 32.6384C52.2692 32.4431 52.2692 32.1265 52.4645 31.9313C52.6597 31.736 52.9763 31.736 53.1716 31.9313L56.3535 35.1132ZM14 34.9668L56 34.9668L56 35.9668L14 35.9668L14 34.9668Z" fill="#3F2305"/>
</svg>
