<svg width="36" height="27" viewBox="0 0 36 27" fill="none" xmlns="http://www.w3.org/2000/svg">
<g clip-path="url(#clip0_60_2139)">
<path d="M0 0H36V27H0V0Z" fill="#032EA1"/>
<path d="M0 6.75H36V20.25H0V6.75Z" fill="#E00025"/>
<path d="M14.1975 12.7236H21.879V15.6801H14.1975V12.7236Z" fill="white" stroke="black" stroke-width="0.15" stroke-linejoin="bevel"/>
<path d="M21.4875 14.3503H21.7238V15.4641H21.4875V14.3503ZM14.1975 13.8036H21.879V14.1411H14.1975V13.8036ZM14.1975 13.3311H21.879V13.6416H14.1975V13.3311Z" fill="white" stroke="black" stroke-width="0.15" stroke-linejoin="bevel"/>
<path d="M14.1975 12.8721H21.879V13.1623H14.1975V12.8721Z" fill="white" stroke="black" stroke-width="0.135" stroke-linejoin="bevel"/>
<path d="M16.2225 14.3503H16.4655V15.4641H16.2225V14.3503ZM19.53 14.3503H19.773V15.4641H19.53V14.3503ZM14.265 14.3503H14.5013V15.4641H14.265V14.3503ZM14.7375 14.3503H14.9738V15.4641H14.7375V14.3503ZM15.2438 14.3503H15.48V15.4641H15.2438V14.3503ZM15.75 14.3503H15.9863V15.4641H15.75V14.3503ZM19.989 14.3503H20.232V15.4641H19.989V14.3503ZM20.4953 14.3503H20.7383V15.4641H20.4953V14.3503ZM21.0015 14.3503H21.2445V15.4641H21.0015V14.3503Z" fill="white" stroke="black" stroke-width="0.15" stroke-linejoin="bevel"/>
<path d="M11.1937 15.8287C11.3349 15.7519 11.4412 15.6238 11.4907 15.4709H24.525C24.5745 15.6238 24.6808 15.7519 24.822 15.8287H11.1937Z" fill="white" stroke="black" stroke-width="0.15"/>
<path d="M17.8425 8.22149C17.8425 8.22149 17.8357 7.94474 17.9977 7.93799C18.153 7.93799 18.1462 8.22149 18.1462 8.22149H17.8425ZM16.9987 11.9002V11.529C16.9987 11.34 16.8097 11.3265 16.8097 11.1915C16.8097 11.1915 16.7827 10.989 16.8367 10.8945C16.911 11.1645 17.0392 11.1172 17.0392 11.0025C17.0392 10.908 16.9717 10.8135 16.8165 10.5772C16.7625 10.503 16.7962 10.2667 16.8637 10.179C16.8907 10.3815 16.9245 10.4827 17.0122 10.4827C17.0662 10.4827 17.1067 10.449 17.1067 10.3477C17.1067 10.2127 17.019 10.1452 16.9717 10.0237C16.9484 9.96327 16.9431 9.89739 16.9562 9.83395C16.9694 9.77051 17.0006 9.7122 17.046 9.66599C17.0797 9.86849 17.073 9.94949 17.1607 9.94949C17.343 9.88874 17.1607 9.62549 17.1202 9.55799C17.0797 9.48374 17.1877 9.32849 17.1877 9.32849C17.2417 9.51074 17.2552 9.52424 17.3227 9.50399C17.4037 9.48374 17.3902 9.36899 17.2957 9.27449C17.235 9.20699 17.2417 9.11924 17.3092 9.05174C17.3767 9.17999 17.4577 9.17324 17.4645 9.09224L17.4105 8.79524H18.585L18.5242 9.08549C18.5107 9.16649 18.6187 9.18674 18.6862 9.05174C18.7537 9.11924 18.7605 9.21374 18.6997 9.27449C18.6052 9.36899 18.5917 9.48374 18.6727 9.50399C18.7402 9.52424 18.7537 9.50399 18.8077 9.32849C18.8077 9.32849 18.909 9.42974 18.8752 9.55799C18.8347 9.62549 18.6525 9.89549 18.8347 9.94949C18.9225 9.94949 18.9157 9.86849 18.9495 9.66599C18.9937 9.71293 19.0236 9.77158 19.0356 9.83498C19.0476 9.89839 19.0411 9.96389 19.017 10.0237C18.9765 10.1452 18.882 10.2127 18.882 10.3477C18.882 10.449 18.9292 10.4827 18.9832 10.4827C19.071 10.4827 19.1047 10.3882 19.1317 10.179C19.1992 10.2667 19.233 10.503 19.179 10.584C19.0237 10.8135 18.9495 10.908 18.9495 11.0025C18.9495 11.1172 19.0845 11.1645 19.152 10.8945C19.2127 10.989 19.1857 11.1915 19.1857 11.1915C19.1857 11.3265 19.0035 11.34 18.9967 11.529V11.9002H16.9987ZM17.4847 8.79524L17.4577 8.58599H18.531L18.504 8.79524H17.4847ZM17.5522 8.57924L17.5387 8.41049H18.45L18.4297 8.57924H17.5522ZM17.7075 8.40374L17.6872 8.22824H18.2947L18.288 8.40374H17.7075ZM19.935 15.8287C19.8 15.7815 19.5975 15.633 19.5975 15.4912V13.851L19.773 13.6215H16.2225L16.3912 13.851V15.4912C16.3912 15.633 16.2562 15.7815 16.1212 15.8287H19.935Z" fill="white" stroke="black" stroke-width="0.15"/>
<path d="M16.8435 14.3506H17.0865V15.4643H16.8435V14.3506ZM18.8955 14.3506H19.1385V15.4643H18.8955V14.3506Z" fill="white" stroke="black" stroke-width="0.15" stroke-linejoin="bevel"/>
<path d="M16.1549 11.7585V13.6215H19.7999V11.7585C19.7578 11.7739 19.72 11.7991 19.6895 11.8319C19.6589 11.8648 19.6367 11.9044 19.6244 11.9475V12.744H16.3372V11.9475C16.3372 11.9475 16.2967 11.8125 16.1482 11.7585H16.1549Z" fill="white" stroke="black" stroke-width="0.15"/>
<path d="M19.3005 15.8288C19.179 15.7815 18.9225 15.633 18.9225 15.4913V13.6553C18.9495 13.554 19.0845 13.4933 19.1723 13.4258H16.7625C16.8773 13.4933 17.0055 13.5405 17.0528 13.6553V15.4913C17.0528 15.633 16.8503 15.7815 16.7288 15.8288H19.3005Z" fill="white" stroke="black" stroke-width="0.15"/>
<path d="M19.6244 13.4459V12.1229H19.2937V11.9946H16.6747V12.1296H16.3372V13.4459H19.6244ZM18.7874 15.8286C18.6659 15.7814 18.4972 15.6329 18.4972 15.4911V13.9251L18.5917 13.7834H17.3969L17.4982 13.9184V15.4911C17.4982 15.6329 17.3227 15.7814 17.2079 15.8286H18.7874Z" fill="white" stroke="black" stroke-width="0.15"/>
<path d="M17.6873 13.7834H18.2948V15.8287H17.6873V13.7834Z" fill="white" stroke="black" stroke-width="0.15"/>
<path d="M18.612 13.3312C18.612 13.1962 19.0035 13.1895 19.206 13.0747H16.776C16.9785 13.1895 17.3633 13.1962 17.3633 13.3312L17.4443 13.5945L18.4568 13.635L18.612 13.3312Z" fill="white" stroke="black" stroke-width="0.15" stroke-linejoin="bevel"/>
<path d="M19.0845 11.9002C19.0845 11.5694 19.098 11.4479 19.1992 11.4479V12.4874C18.9495 12.5819 18.774 12.8924 18.774 12.8924H17.208C17.208 12.8924 17.0325 12.5819 16.7827 12.4874V11.4412C16.9042 11.4412 16.9042 11.5762 16.9042 11.8934L19.0845 11.9002ZM19.1992 11.7652C19.1992 11.3872 19.53 11.3467 19.53 11.3467V11.6842C19.4017 11.6774 19.341 11.7922 19.341 11.9542C19.341 12.1229 19.4422 12.1229 19.4422 12.1229V13.0814H19.1992V11.7652Z" fill="white" stroke="black" stroke-width="0.15"/>
<path d="M16.7827 11.7652C16.7827 11.3872 16.4519 11.3467 16.4519 11.3467V11.6842C16.5802 11.6774 16.6409 11.7922 16.6409 11.9542C16.6409 12.1229 16.5397 12.1229 16.5397 12.1229V13.0814H16.7827V11.7652Z" fill="white" stroke="black" stroke-width="0.15"/>
<path d="M17.424 9.15308H18.585M17.289 9.51758H18.7065M17.154 9.95633H18.8347M17.0122 10.4896H19.0035M16.965 11.0971H19.017" stroke="black" stroke-width="0.12"/>
<path d="M16.344 13.095H19.6245M17.3835 13.095H18.5985V13.5405H17.3835V13.095Z" stroke="black" stroke-width="0.15"/>
<path d="M17.235 12.096C17.4375 12.339 17.4105 12.7508 17.4105 12.9938H18.585C18.585 12.7508 18.558 12.339 18.7605 12.096H17.235ZM17.8897 9.32851L17.7277 9.24076V9.00451C17.7952 9.02476 17.8627 9.03151 17.8762 9.13951C17.8965 8.98426 17.9437 8.99776 18.0045 8.93701C18.072 8.99776 18.1057 8.98426 18.1327 9.13951C18.1327 9.03151 18.2137 9.02476 18.2745 9.00451V9.24076L18.1192 9.32176L17.8897 9.32851Z" fill="white" stroke="black" stroke-width="0.15"/>
<path d="M17.8762 9.71324L17.6062 9.52424V9.31499C17.7075 9.33524 17.8087 9.34874 17.8222 9.46349C17.8492 9.29474 17.91 9.21374 18.0045 9.14624C18.0922 9.21374 18.153 9.29474 18.1867 9.46349C18.1935 9.34874 18.3015 9.33524 18.3892 9.31499V9.53099L18.126 9.71324H17.8762Z" fill="white" stroke="black" stroke-width="0.15"/>
<path d="M17.856 10.314L17.5522 10.044V9.7268C17.6602 9.7538 17.7817 9.7673 17.7952 9.93605C17.829 9.6998 17.8965 9.57155 17.9977 9.47705C18.1057 9.57155 18.1732 9.6998 18.2137 9.93605C18.2272 9.7673 18.3487 9.7538 18.4567 9.7268V10.044L18.1462 10.314H17.856ZM18.423 10.6718L18.153 11.0565H17.8357L17.559 10.6718H18.423ZM17.397 11.313C17.532 11.3873 17.586 11.5426 17.5995 11.8261H18.3825C18.396 11.5426 18.45 11.3873 18.585 11.313H17.397Z" fill="white" stroke="black" stroke-width="0.15"/>
<path d="M18.5984 10.665V10.287C18.5403 10.2994 18.4863 10.3263 18.4414 10.3653C18.3966 10.4043 18.3623 10.454 18.3419 10.5098C18.3419 10.3748 18.1732 10.0845 17.9909 9.93604C17.8087 10.098 17.6332 10.368 17.6399 10.503C17.6062 10.4018 17.5184 10.3208 17.3834 10.287V10.6718L18.5984 10.665Z" fill="white" stroke="black" stroke-width="0.15" stroke-linejoin="bevel"/>
<path d="M18.6525 11.313V10.935C18.5107 10.9755 18.4162 11.0497 18.3757 11.1577C18.3757 11.0227 18.1935 10.7325 17.991 10.584C17.7885 10.7527 17.5995 11.016 17.6062 11.1577C17.5725 11.0565 17.4712 10.9755 17.3295 10.935V11.3197L18.6525 11.313Z" fill="white" stroke="black" stroke-width="0.15" stroke-linejoin="bevel"/>
<path d="M18.8144 12.1027V11.6572C18.6738 11.7011 18.5524 11.7915 18.4701 11.9137C18.4701 11.6774 18.2001 11.3062 17.9909 11.1914C17.7749 11.3129 17.5116 11.6909 17.5116 11.9137C17.4273 11.7907 17.3034 11.7002 17.1606 11.6572V12.1027H18.8144Z" fill="white" stroke="black" stroke-width="0.15" stroke-linejoin="bevel"/>
<path d="M18.72 13.095V12.636C18.558 12.6967 18.5175 12.8452 18.4635 12.9532C18.4837 12.4875 18.207 11.9947 17.991 11.8665C17.775 11.9947 17.4915 12.501 17.5185 12.9465C17.4645 12.852 17.4172 12.6967 17.262 12.636V13.0882L18.72 13.095Z" fill="white" stroke="black" stroke-width="0.15" stroke-linejoin="bevel"/>
<path d="M18.612 13.7835V13.3245C18.4432 13.365 18.4365 13.4258 18.3825 13.527C18.4027 13.2503 18.207 12.933 17.991 12.8115C17.775 12.933 17.586 13.2503 17.5995 13.527C17.5455 13.4258 17.5387 13.365 17.37 13.3245V13.7835H18.612Z" fill="white" stroke="black" stroke-width="0.15"/>
<path d="M11.4974 15.4709V14.0939C11.4501 13.9184 11.2949 13.7564 11.1869 13.7294V12.5144L11.4366 12.6494L11.7269 13.9252V15.4777L11.4974 15.4709Z" fill="white" stroke="black" stroke-width="0.15"/>
<path d="M11.4974 15.4778V14.0941C11.4501 13.9186 11.2949 13.7566 11.1869 13.7296V12.4336C11.3556 12.4336 11.4366 12.6496 11.4366 12.6496L11.7269 13.9253V15.4711L11.4974 15.4778Z" fill="white" stroke="black" stroke-width="0.15"/>
<path d="M11.3152 15.8287C11.4299 15.7814 11.5987 15.6329 11.5987 15.4912V13.7632L11.5177 13.6282H14.4674L14.3527 13.7632V15.4912C14.3576 15.5627 14.3815 15.6316 14.4218 15.6909C14.4621 15.7502 14.5175 15.7978 14.5822 15.8287H11.3152Z" fill="white" stroke="black" stroke-width="0.15"/>
<path d="M13.9813 15.8288C13.8666 15.7816 13.6978 15.6331 13.6978 15.4913V13.8511L13.9408 13.6216H11.9428L12.1858 13.8511V15.4913C12.1858 15.6331 12.0171 15.7816 11.9023 15.8288H13.9813Z" fill="white" stroke="black" stroke-width="0.15"/>
<path d="M13.7047 15.8287C13.5899 15.7814 13.4144 15.6329 13.4144 15.4912V14.0062L13.5764 13.7834H12.3074L12.4694 14.0062V15.4912C12.4694 15.6329 12.3007 15.7814 12.1792 15.8287H13.7047Z" fill="white" stroke="black" stroke-width="0.15"/>
<path d="M12.6449 13.7834H13.2457V15.8354H12.6382L12.6449 13.7834Z" fill="white" stroke="black" stroke-width="0.15"/>
<path d="M11.8146 14.3506H12.0576V15.4643H11.8146V14.3506ZM13.8936 14.3506H14.1298V15.4643H13.8868L13.8936 14.3506ZM11.6053 12.4741H11.9023V13.6216H11.6053V12.4741ZM11.6053 12.2581H11.8956V12.4741H11.6053V12.2581ZM14.0083 12.7238H14.4201V13.6013H14.0083V12.7238Z" fill="white"/>
<path d="M11.6053 12.4741H11.9023V13.6216H11.6053V12.4741ZM11.6053 12.4741H11.8956V12.2581H11.6053V12.4741ZM11.8146 14.3506H12.0576V15.4643H11.8146V14.3506ZM13.8936 14.3506H14.1298V15.4643H13.8868L13.8936 14.3506ZM14.0083 12.7238H14.4201V13.6013H14.0083V12.7238Z" stroke="black" stroke-width="0.15" stroke-linejoin="bevel"/>
<path d="M11.8957 13.608V11.6505C11.9767 11.6505 11.9902 11.9408 12.1792 11.9408C12.2804 11.9408 12.2737 11.8193 12.2129 11.7248C12.1657 11.637 12.1049 11.5223 12.1859 11.2995C12.2467 11.4683 12.3952 11.5223 12.3682 11.421C12.3209 11.2388 12.1792 11.205 12.2872 10.9283C12.3209 11.1578 12.4694 11.151 12.4357 11.016C12.3952 10.8608 12.3074 10.7933 12.4154 10.5773C12.4762 10.827 12.5504 10.8135 12.5504 10.6583C12.5504 10.4288 12.5504 10.1858 12.8339 10.098C12.8339 10.098 12.8542 9.89551 12.9622 9.89551C13.0634 9.89551 13.0837 10.098 13.0837 10.098C13.3739 10.1858 13.3672 10.4355 13.3672 10.6583C13.3672 10.8135 13.4414 10.827 13.5022 10.5773C13.6102 10.7933 13.5224 10.8608 13.4819 11.016C13.4482 11.151 13.5967 11.1578 13.6304 10.9283C13.7384 11.205 13.5967 11.2388 13.5494 11.421C13.5224 11.5223 13.6709 11.4683 13.7317 11.2995C13.8127 11.5223 13.7519 11.637 13.7047 11.7248C13.6507 11.8193 13.6372 11.9408 13.7384 11.9408C13.9274 11.9408 13.9409 11.6573 14.0219 11.6573V13.608H11.8957ZM11.4299 12.1298V13.6215H11.5987V12.1298C11.5379 12.096 11.4839 12.096 11.4299 12.1298Z" fill="white" stroke="black" stroke-width="0.15"/>
<path d="M11.4434 13.0949C11.6526 13.2029 11.8619 13.3311 11.9159 13.6214H11.4434V13.0949ZM14.3594 12.6494V13.6214H14.4944V12.6494C14.4539 12.6292 14.3931 12.6224 14.3594 12.6494Z" fill="white" stroke="black" stroke-width="0.15"/>
<path d="M14.4943 13.095C14.2851 13.1962 14.0758 13.3177 14.0218 13.6147H14.4943V13.095ZM13.1038 10.8202L13.2253 10.719V10.584C13.1848 10.584 13.1578 10.6042 13.1241 10.6515C13.111 10.6081 13.0893 10.5679 13.0603 10.5331C13.0313 10.4983 12.9956 10.4697 12.9553 10.449C12.9145 10.4682 12.8779 10.4954 12.8477 10.5291C12.8176 10.5627 12.7945 10.602 12.7798 10.6447C12.7461 10.5975 12.7258 10.5907 12.6786 10.5772V10.7122L12.8001 10.8202H13.1038Z" fill="white" stroke="black" stroke-width="0.15"/>
<path d="M13.1713 11.151L13.2253 11.0227V10.854C13.1848 10.854 13.1578 10.8742 13.1241 10.9215C13.111 10.8781 13.0893 10.8379 13.0603 10.8031C13.0313 10.7683 12.9956 10.7397 12.9553 10.719C12.9145 10.7382 12.8779 10.7655 12.8477 10.7991C12.8176 10.8327 12.7945 10.872 12.7798 10.9147C12.7461 10.8675 12.7258 10.8607 12.6786 10.854V11.0227L12.7326 11.151H13.1713Z" fill="white" stroke="black" stroke-width="0.15"/>
<path d="M13.1848 11.5965L13.3603 11.3738V11.1578C13.2928 11.1578 13.2591 11.1915 13.2118 11.2658C13.1646 11.1105 13.0768 11.0835 12.9553 11.0093C12.8271 11.0768 12.7393 11.1105 12.6988 11.259C12.6448 11.1848 12.6111 11.1645 12.5436 11.1578V11.3738L12.7258 11.5965H13.1848Z" fill="white" stroke="black" stroke-width="0.15"/>
<path d="M13.2321 12.0352C13.2321 12.0352 13.4481 11.8529 13.4548 11.7517V11.5154C13.3738 11.5222 13.2996 11.5424 13.2388 11.6437C13.1848 11.4479 13.1038 11.3939 12.9553 11.3062C12.8001 11.3939 12.7191 11.4479 12.6718 11.6437C12.6043 11.5424 12.5368 11.5222 12.4491 11.5087V11.7517C12.5058 11.8587 12.5812 11.9547 12.6718 12.0352H13.2321Z" fill="white" stroke="black" stroke-width="0.15"/>
<path d="M13.3199 12.8452C13.3199 12.8452 13.6169 12.528 13.6236 12.3997V12.0352C13.5156 12.0487 13.4076 12.123 13.3266 12.2782C13.2591 11.9745 13.1511 11.7652 12.9554 11.6167C12.7529 11.7652 12.6449 11.9745 12.5774 12.2782C12.4964 12.123 12.3951 12.0487 12.2871 12.0352V12.3997C12.3074 12.528 12.5841 12.8452 12.5841 12.8452H13.3199Z" fill="white" stroke="black" stroke-width="0.15"/>
<path d="M13.3199 13.3245C13.3199 13.3245 13.5696 13.0748 13.6236 12.9668V12.6023C13.5156 12.6158 13.4076 12.69 13.3266 12.8385C13.3086 12.7157 13.2665 12.5976 13.2028 12.4911C13.1391 12.3845 13.055 12.2916 12.9554 12.2175C12.7529 12.366 12.6449 12.5348 12.5774 12.8385C12.4964 12.69 12.3951 12.6158 12.2871 12.6023V12.9668C12.3546 13.0748 12.5841 13.3245 12.5841 13.3245H13.3199Z" fill="white" stroke="black" stroke-width="0.15"/>
<path d="M13.4212 13.6081C13.3537 13.2909 13.2862 13.0546 12.9419 12.8184C12.5909 13.0546 12.5302 13.2909 12.4559 13.6081H13.4212Z" fill="white" stroke="black" stroke-width="0.15"/>
<path d="M13.6034 13.7835V13.3245C13.4414 13.392 13.2996 13.4798 13.2456 13.581C13.1916 13.3245 13.0769 13.2165 12.9351 13.0613C12.7934 13.2165 12.6989 13.3313 12.6381 13.581C12.5841 13.4798 12.4424 13.3853 12.2871 13.3245V13.7835H13.6034Z" fill="white" stroke="black" stroke-width="0.15"/>
<path d="M24.5047 15.4709V14.0939C24.5519 13.9184 24.7072 13.7564 24.8152 13.7294V12.5144L24.5654 12.6494L24.2752 13.9252V15.4777L24.5047 15.4709Z" fill="white" stroke="black" stroke-width="0.15"/>
<path d="M24.5047 15.4778V14.0941C24.5519 13.9186 24.7072 13.7566 24.8152 13.7296V12.4336C24.6464 12.4336 24.5654 12.6496 24.5654 12.6496L24.2752 13.9253V15.4711L24.5047 15.4778Z" fill="white" stroke="black" stroke-width="0.15"/>
<path d="M24.6869 15.8287C24.5721 15.7814 24.4034 15.6329 24.4034 15.4912V13.7632L24.4844 13.6282H21.5346L21.6494 13.7632V15.4912C21.6444 15.5627 21.6206 15.6316 21.5803 15.6909C21.5399 15.7502 21.4846 15.7978 21.4199 15.8287H24.6869Z" fill="white" stroke="black" stroke-width="0.15"/>
<path d="M22.0207 15.8288C22.1355 15.7816 22.3042 15.6331 22.3042 15.4913V13.8511L22.0612 13.6216H24.0592L23.8162 13.8511V15.4913C23.8162 15.6331 23.985 15.7816 24.0997 15.8288H22.0207Z" fill="white" stroke="black" stroke-width="0.15"/>
<path d="M22.2974 15.8287C22.4121 15.7814 22.5876 15.6329 22.5876 15.4912V14.0062L22.4256 13.7834H23.6946L23.5326 14.0062V15.4912C23.5326 15.6329 23.7014 15.7814 23.8229 15.8287H22.2974Z" fill="white" stroke="black" stroke-width="0.15"/>
<path d="M23.3571 13.7834H22.7564V15.8354H23.3639L23.3571 13.7834Z" fill="white" stroke="black" stroke-width="0.15"/>
<path d="M24.1875 14.3506H23.9445V15.4643H24.1875V14.3506ZM22.1085 14.3506H21.8722V15.4643H22.1152L22.1085 14.3506ZM24.3967 12.4741H24.0997V13.6216H24.3967V12.4741ZM24.3967 12.2581H24.1065V12.4741H24.3967V12.2581ZM21.9937 12.7238H21.582V13.6013H21.9937V12.7238Z" fill="white"/>
<path d="M24.3967 12.4741H24.0997V13.6216H24.3967V12.4741ZM24.3967 12.4741H24.1065V12.2581H24.3967V12.4741ZM24.1875 14.3506H23.9445V15.4643H24.1875V14.3506ZM22.1085 14.3506H21.8722V15.4643H22.1152L22.1085 14.3506ZM21.9937 12.7238H21.582V13.6013H21.9937V12.7238Z" stroke="black" stroke-width="0.15" stroke-linejoin="bevel"/>
<path d="M24.1064 13.608V11.6505C24.0254 11.6505 24.0119 11.9408 23.8229 11.9408C23.7216 11.9408 23.7284 11.8193 23.7891 11.7248C23.8364 11.637 23.8971 11.5223 23.8161 11.2995C23.7554 11.4683 23.6069 11.5223 23.6339 11.421C23.6811 11.2388 23.8229 11.205 23.7149 10.9283C23.6811 11.1578 23.5326 11.151 23.5664 11.016C23.6069 10.8608 23.6946 10.7933 23.5866 10.5773C23.5259 10.827 23.4516 10.8135 23.4516 10.6583C23.4516 10.4288 23.4516 10.1858 23.1681 10.098C23.1681 10.098 23.1479 9.89551 23.0399 9.89551C22.9386 9.89551 22.9184 10.098 22.9184 10.098C22.6281 10.1858 22.6349 10.4355 22.6349 10.6583C22.6349 10.8135 22.5606 10.827 22.4999 10.5773C22.3919 10.7933 22.4796 10.8608 22.5201 11.016C22.5539 11.151 22.4054 11.1578 22.3716 10.9283C22.2636 11.205 22.4054 11.2388 22.4526 11.421C22.4796 11.5223 22.3311 11.4683 22.2704 11.2995C22.1894 11.5223 22.2501 11.637 22.2974 11.7248C22.3514 11.8193 22.3649 11.9408 22.2636 11.9408C22.0746 11.9408 22.0611 11.6573 21.9801 11.6573V13.608H24.1064ZM24.5721 12.1298V13.6215H24.4034V12.1298C24.4641 12.096 24.5181 12.096 24.5721 12.1298Z" fill="white" stroke="black" stroke-width="0.15"/>
<path d="M24.5587 13.0949C24.3495 13.2029 24.1402 13.3311 24.0862 13.6214H24.5587V13.0949ZM21.6427 12.6494V13.6214H21.5077V12.6494C21.5482 12.6292 21.609 12.6224 21.6427 12.6494Z" fill="white" stroke="black" stroke-width="0.15"/>
<path d="M21.5077 13.095C21.717 13.1962 21.9262 13.3177 21.9802 13.6147H21.5077V13.095ZM22.8982 10.8202L22.7767 10.719V10.584C22.8172 10.584 22.8442 10.6042 22.878 10.6515C22.8911 10.6081 22.9128 10.5679 22.9418 10.5331C22.9708 10.4983 23.0065 10.4697 23.0467 10.449C23.0876 10.4682 23.1242 10.4954 23.1543 10.5291C23.1845 10.5627 23.2076 10.602 23.2222 10.6447C23.256 10.5975 23.2762 10.5907 23.3235 10.5772V10.7122L23.202 10.8202H22.8982Z" fill="white" stroke="black" stroke-width="0.15"/>
<path d="M22.8307 11.151L22.7767 11.0227V10.854C22.8172 10.854 22.8442 10.8742 22.878 10.9215C22.8911 10.8781 22.9128 10.8379 22.9418 10.8031C22.9708 10.7683 23.0065 10.7397 23.0467 10.719C23.0876 10.7382 23.1242 10.7655 23.1543 10.7991C23.1845 10.8327 23.2076 10.872 23.2222 10.9147C23.256 10.8675 23.2762 10.8607 23.3235 10.854V11.0227L23.2695 11.151H22.8307Z" fill="white" stroke="black" stroke-width="0.15"/>
<path d="M22.8172 11.5965L22.6417 11.3738V11.1578C22.7092 11.1578 22.743 11.1915 22.7902 11.2658C22.8375 11.1105 22.9252 11.0835 23.0467 11.0093C23.175 11.0768 23.2627 11.1105 23.3032 11.259C23.3572 11.1848 23.391 11.1645 23.4585 11.1578V11.3738L23.2762 11.5965H22.8172Z" fill="white" stroke="black" stroke-width="0.15"/>
<path d="M22.77 12.0352C22.77 12.0352 22.554 11.8529 22.5472 11.7517V11.5154C22.6282 11.5222 22.7025 11.5424 22.7632 11.6437C22.8172 11.4479 22.8982 11.3939 23.0467 11.3062C23.202 11.3939 23.283 11.4479 23.3302 11.6437C23.3977 11.5424 23.4652 11.5222 23.553 11.5087V11.7517C23.4963 11.8587 23.4208 11.9547 23.3302 12.0352H22.77Z" fill="white" stroke="black" stroke-width="0.15"/>
<path d="M22.6822 12.8452C22.6822 12.8452 22.3852 12.528 22.3785 12.3997V12.0352C22.4865 12.0487 22.5945 12.123 22.6755 12.2782C22.743 11.9745 22.851 11.7652 23.0467 11.6167C23.2492 11.7652 23.3572 11.9745 23.4247 12.2782C23.5057 12.123 23.607 12.0487 23.715 12.0352V12.3997C23.6947 12.528 23.418 12.8452 23.418 12.8452H22.6822Z" fill="white" stroke="black" stroke-width="0.15"/>
<path d="M22.6822 13.3245C22.6822 13.3245 22.4325 13.0748 22.3785 12.9668V12.6023C22.4865 12.6158 22.5945 12.69 22.6755 12.8385C22.6935 12.7157 22.7356 12.5976 22.7993 12.4911C22.863 12.3845 22.9471 12.2916 23.0467 12.2175C23.2492 12.366 23.3572 12.5348 23.4247 12.8385C23.5057 12.69 23.607 12.6158 23.715 12.6023V12.9668C23.6475 13.0748 23.418 13.3245 23.418 13.3245H22.6822Z" fill="white" stroke="black" stroke-width="0.15"/>
<path d="M22.5809 13.6081C22.6484 13.2909 22.7159 13.0546 23.0601 12.8184C23.4111 13.0546 23.4719 13.2909 23.5461 13.6081H22.5809Z" fill="white" stroke="black" stroke-width="0.15"/>
<path d="M22.3987 13.7835V13.3245C22.5607 13.392 22.7025 13.4798 22.7565 13.581C22.8105 13.3245 22.9252 13.2165 23.067 13.0613C23.2087 13.2165 23.3032 13.3313 23.364 13.581C23.418 13.4798 23.5597 13.3853 23.715 13.3245V13.7835H22.3987Z" fill="white" stroke="black" stroke-width="0.15"/>
<path d="M9.7222 17.5026H26.2799V18.3464H9.7222V17.5026ZM9.28345 18.3464H26.7187V19.1901H9.28345V18.3464ZM10.5929 16.2336H25.4024V16.7804H10.5929V16.2336Z" fill="white" stroke="black" stroke-width="0.15"/>
<path d="M10.1609 16.7804H25.8479V17.4959H10.1609V16.7804ZM10.8494 15.8152H25.1594V16.2337H10.8494V15.8152Z" fill="white" stroke="black" stroke-width="0.15"/>
<path d="M12.402 15.8152H13.482V19.1902H12.402V15.8152Z" fill="white" stroke="black" stroke-width="0.15"/>
<path d="M12.6449 15.8152H13.2457V19.1902H12.6382L12.6449 15.8152ZM17.4374 15.8152H18.5174V19.1902H17.4374V15.8152Z" fill="white" stroke="black" stroke-width="0.15"/>
<path d="M17.6873 15.8152H18.2948V19.1902H17.6873V15.8152ZM22.5135 15.8152H23.5935V19.1902H22.5135V15.8152Z" fill="white" stroke="black" stroke-width="0.15"/>
<path d="M22.7498 15.8152H23.3573V19.1902H22.7498V15.8152Z" fill="white" stroke="black" stroke-width="0.15"/>
<path d="M11.4974 15.4709H24.5249M12.6314 18.7649H13.2524M12.6314 18.3397H13.2524M12.6314 17.9212H13.2524M12.6314 17.4959H13.2524M12.6314 17.0774H13.2524M12.6314 16.6522H13.2524M12.6314 16.2337H13.2524M17.6939 18.7649H18.2744M17.6939 18.3397H18.2744M17.6939 17.9212H18.2744M17.6939 17.4959H18.2744M17.6939 17.0774H18.2744M17.6939 16.6522H18.2744M17.6939 16.2337H18.2744M22.7429 18.7649H23.3639M22.7429 18.3397H23.3639M22.7429 17.9212H23.3639M22.7429 17.4959H23.3639M22.7429 17.0774H23.3639M22.7429 16.6522H23.3639M22.7429 16.2337H23.3639" stroke="black" stroke-width="0.15"/>
</g>
<defs>
<clipPath id="clip0_60_2139">
<rect width="36" height="27" fill="white"/>
</clipPath>
</defs>
</svg>
